<?xml version="1.0" standalone="no"?><!DOCTYPE svg PUBLIC "-//W3C//DTD SVG 1.1//EN" "http://www.w3.org/Graphics/SVG/1.1/DTD/svg11.dtd"><svg t="1481470759606" class="icon" style="" viewBox="0 0 1024 1024" version="1.1" xmlns="http://www.w3.org/2000/svg" p-id="2426" xmlns:xlink="http://www.w3.org/1999/xlink" width="200" height="200"><defs><style type="text/css"></style></defs><path d="M280.192 138.688c18.88 13.312 38.208 26.304 51.84 44.224 14.592 19.136 28.8 38.464 42.816 57.984 2.56 3.52 5.12 4.8 9.792 4.736 36.096-0.192 72.128-0.064 108.224-0.064 35.904 0 71.744-0.064 107.584 0.128 4.864 0 7.872-1.088 10.432-4.864 10.752-15.36 21.312-30.848 32.896-45.696 16-20.544 32.704-40.576 57.92-53.632a41.92 41.92 0 0 0 11.776-9.92c6.208-7.296 11.2-15.36 9.024-24.96-3.2-14.208-19.264-22.656-36.736-19.136-7.936 1.6-15.616 4.352-23.232 6.976-20.352 7.04-38.848 5.184-54.976-8.512-3.2-2.88-6.464-5.824-10.112-8.128-22.848-14.528-49.984-21.312-74.048-1.664-7.488 6.144-15.36 12.032-23.488 17.408-2.304 1.536-7.488 2.432-9.536 1.216-9.152-5.12-18.624-10.368-26.304-17.088a56.32 56.32 0 0 0-63.36-6.08 353.92 353.92 0 0 0-24.896 16.896 47.552 47.552 0 0 1-39.936 9.344c-7.296-1.664-14.4-4.032-21.696-5.44-9.28-1.792-18.688-4.096-28.16-4.288-14.336-0.384-25.728 12.544-23.36 24.896a39.872 39.872 0 0 0 17.536 25.664z m534.592 324.48c-31.232-29.056-66.752-54.656-99.072-82.88-26.688-23.296-51.648-48.064-77.12-72.384a16 16 0 0 0-12.032-5.12c-78.08 0.128-156.224 0.064-234.304 0.256-3.392 0-8.064 1.216-9.92 3.328-37.568 41.984-80.96 78.912-126.208 114.304-43.072 33.664-77.76 73.088-101.248 119.68a288.64 288.64 0 0 0-29.76 101.248c-0.32 3.2-0.96 6.336-1.472 9.472v24.064c1.408 10.112 2.624 20.224 4.16 30.336 6.912 44.992 26.368 85.696 56.64 122.176 58.368 70.336 139.072 109.632 235.136 124.992 79.936 12.8 159.744 9.984 237.76-10.816 65.472-17.472 124.096-45.696 169.28-92.16 39.04-40.192 62.464-86.784 69.632-139.2 2.816-20.224 4.608-40.768 3.968-61.056-2.048-71.296-29.504-134.336-85.44-186.24z" p-id="2427" fill="#f4ea2a"></path></svg>